<?xml version="1.0" encoding="UTF-8" standalone="no"?><!DOCTYPE svg PUBLIC "-//W3C//DTD SVG 1.1//EN" "http://www.w3.org/Graphics/SVG/1.1/DTD/svg11.dtd"><svg width="100%" height="100%" viewBox="0 0 1985 709" version="1.1" xmlns="http://www.w3.org/2000/svg" xmlns:xlink="http://www.w3.org/1999/xlink" xml:space="preserve" xmlns:serif="http://www.serif.com/" style="fill-rule:evenodd;clip-rule:evenodd;stroke-linejoin:round;stroke-miterlimit:2;"><g><path d="M661.142,422.242c16.716,16.716 37.128,25.075 61.236,25.075c25.163,0 37.744,-7.391 37.744,-22.172c0,-7.742 -6.95,-13.461 -20.852,-17.157c-9.854,-2.287 -25.515,-6.246 -46.983,-11.877c-17.42,-4.575 -32.113,-13.022 -44.079,-25.339c-11.79,-12.142 -17.684,-30.794 -17.684,-55.957c0,-19.356 4.839,-35.721 14.517,-49.095c9.854,-13.373 22.611,-23.227 38.272,-29.562c16.013,-6.511 33.522,-9.766 52.526,-9.766c10.734,0 21.644,1.496 32.729,4.487c11.966,3.696 22.7,8.271 32.202,13.726c10.382,5.806 19.532,12.317 27.451,19.532l-46.455,46.191c-13.549,-10.206 -28.331,-15.309 -44.343,-15.309c-19.181,0 -28.771,5.367 -28.771,16.1c0,9.679 7.127,16.453 21.38,20.324c15.661,4.224 31.41,8.183 47.247,11.878c17.42,4.399 31.937,12.494 43.551,24.283c11.79,11.966 17.685,30.794 17.685,56.485c0,19.18 -5.103,35.721 -15.309,49.623c-10.206,14.077 -23.844,24.547 -40.912,31.409c-17.069,7.215 -34.753,10.822 -53.054,10.822c-15.309,0 -29.122,-1.232 -41.44,-3.695c-12.317,-2.288 -23.843,-6.159 -34.577,-11.614c-11.086,-5.455 -22.699,-12.757 -34.841,-21.907l42.76,-56.485Z" style="fill:#fff;fill-rule:nonzero;"/><path d="M851.712,507.233l0,-374.279l84.464,-0.263l0,206.935l1.055,0l87.367,-102.412l98.981,0l-97.661,115.873l114.817,154.146l-105.315,0l-99.244,-132.502l0,132.502l-84.464,0Z" style="fill:#fff;fill-rule:nonzero;"/><path d="M1241.3,237.214l0,270.547l-84.2,0l0,-270.283l84.2,-0.264Zm0.264,-76.545c0,8.446 -1.936,15.925 -5.807,22.436c-3.872,6.51 -9.151,11.789 -15.837,15.837c-6.687,4.047 -14.077,6.07 -22.172,6.07c-8.094,0 -15.397,-1.935 -21.908,-5.807c-6.686,-4.047 -11.965,-9.414 -15.836,-16.1c-4.048,-7.039 -6.071,-14.518 -6.071,-22.436c0,-8.094 1.935,-15.485 5.807,-22.172c4.223,-6.862 9.59,-12.229 16.1,-16.1c6.511,-3.872 13.814,-5.807 21.908,-5.807c8.095,0 15.485,1.935 22.172,5.807c6.51,3.871 11.789,9.238 15.837,16.1c3.871,6.687 5.807,14.078 5.807,22.172Z" style="fill:#fff;fill-rule:nonzero;"/><path d="M1493.9,341.21l0,166.287l-84.727,0l0,-166.287c-1.408,-24.812 -12.054,-37.569 -31.938,-38.273l-4.751,0c-21.468,0.704 -32.202,15.573 -32.202,44.607l0,159.953l-84.463,0l0,-159.953c0,-76.545 38.888,-116.929 116.665,-121.152l4.751,0c30.97,1.76 55.781,9.15 74.433,22.172c18.477,-13.022 43.2,-20.412 74.17,-22.172l4.751,0c77.776,4.223 116.665,44.607 116.665,121.152l0,159.953l-84.464,0l0,-159.953c0,-29.034 -10.734,-43.903 -32.201,-44.607l-4.751,0c-19.884,0.704 -30.53,13.461 -31.938,38.273Z" style="fill:#fff;fill-rule:nonzero;"/><path d="M1744.91,371.3c0,-18.829 7.038,-35.017 21.115,-48.567c13.902,-13.549 30.354,-20.324 49.359,-20.324c19.18,0 35.721,6.775 49.622,20.324c14.077,13.725 21.116,29.914 21.116,48.567c0,12.317 -3.256,23.579 -9.766,33.785c-6.511,10.382 -15.221,18.652 -26.131,24.811c-10.91,6.159 -22.524,9.238 -34.841,9.238c-12.318,0 -23.844,-3.079 -34.577,-9.238c-10.91,-6.159 -19.621,-14.429 -26.131,-24.811c-6.511,-10.03 -9.766,-21.292 -9.766,-33.785Zm-84.2,239.665l84.2,0.263l0,-111.386l12.141,5.279c19.004,6.863 38.449,10.294 58.333,10.294c20.236,0 39.768,-3.431 58.596,-10.294c18.653,-6.862 35.281,-16.98 49.886,-30.354c14.606,-13.197 25.955,-28.594 34.05,-46.191c8.27,-17.772 12.405,-36.864 12.405,-57.276c0,-20.94 -4.047,-40.12 -12.141,-57.541c-8.095,-17.421 -19.532,-32.906 -34.314,-46.455c-14.957,-13.549 -31.585,-23.667 -49.886,-30.354c-18.476,-7.215 -38.008,-10.822 -58.596,-10.822c-26.923,0 -52.35,6.335 -76.281,19.004c-23.932,12.494 -42.936,29.739 -57.013,51.734c-14.077,21.468 -21.204,45.663 -21.38,72.586l0,241.513Z" style="fill:#fff;fill-rule:nonzero;"/></g><circle cx="235.474" cy="243.558" r="221.546" style="fill:url(#_Linear1);"/><path d="M235.474,243.558c81.933,0 153.539,44.573 191.868,110.773l0,0l0.021,0.037c0.276,0.476 0.55,0.953 0.821,1.431l0.037,0.063l0.049,0.088l0.15,0.264l0.187,0.331l0.049,0.086l0.024,0.044c0.27,0.479 0.538,0.959 0.804,1.441l0.033,0.058l0.049,0.09l0.157,0.283l0.17,0.312l0.05,0.09l0.027,0.05c0.264,0.483 0.526,0.966 0.787,1.451l0.028,0.053l0.049,0.091l0.163,0.304l0.157,0.294l0.048,0.091l0.031,0.057c0.258,0.486 0.514,0.973 0.769,1.461l0.025,0.047l0.047,0.091l0.171,0.327l0.142,0.276l0.048,0.092l0.033,0.064c0.252,0.489 0.503,0.979 0.752,1.47l0.022,0.042l0.045,0.09l0.177,0.351l0.13,0.259l0.046,0.091l0.036,0.071l0.089,0.178l0.26,0.522l0.013,0.027c0.125,0.251 0.249,0.502 0.372,0.754l0.018,0.036l0.043,0.086l0.185,0.377l0.117,0.243l0.045,0.09l0.037,0.078l0.094,0.192l0.231,0.479l0.024,0.049l0.007,0.014c0.121,0.252 0.242,0.504 0.362,0.756l0.014,0.03l0.039,0.081l0.193,0.406l0.106,0.226l0.042,0.089l0.04,0.084l0.098,0.208l0.207,0.442l0.032,0.069l0.011,0.022c0.118,0.253 0.235,0.506 0.352,0.76l0.011,0.023l0.033,0.072l0.202,0.439l0.096,0.21l0.04,0.086l0.041,0.09l0.102,0.225l0.187,0.41l0.038,0.084l0.013,0.03c0.115,0.255 0.23,0.509 0.344,0.764l0.007,0.016l0.026,0.059l0.212,0.475l0.086,0.195l0.037,0.083l0.043,0.096l0.106,0.241l0.168,0.382l0.041,0.095l0.017,0.039c0.112,0.255 0.223,0.511 0.334,0.767l0.245,0.567l0.077,0.181l0.034,0.079l0.043,0.101l0.111,0.258l0.151,0.357l0.044,0.102l0.02,0.048c0.108,0.257 0.216,0.514 0.324,0.771l0.244,0.584l0.068,0.165l0.031,0.075l0.044,0.106l0.114,0.276l0.137,0.334l0.044,0.108l0.023,0.056c0.208,0.508 0.413,1.017 0.617,1.527l0.028,0.07l0.044,0.11l0.118,0.295l0.124,0.312l0.044,0.112l0.025,0.064c0.202,0.51 0.401,1.022 0.599,1.533l0.025,0.065l0.043,0.113l0.121,0.316l0.112,0.292l0.043,0.113l0.028,0.073c0.195,0.512 0.388,1.026 0.579,1.54l0.022,0.059l0.043,0.115l0.125,0.337l0.1,0.273l0.042,0.113l0.03,0.082l0.061,0.167l0.203,0.557l0.015,0.041c0.094,0.261 0.188,0.521 0.281,0.782l0.02,0.053l0.041,0.116l0.128,0.36l0.09,0.254l0.04,0.113l0.032,0.09l0.064,0.181l0.177,0.507l0.024,0.067l0.006,0.016c0.091,0.261 0.181,0.523 0.271,0.784l0.016,0.046l0.039,0.115l0.132,0.385l0.081,0.237l0.038,0.111l0.033,0.098l0.066,0.196l0.157,0.465l0.03,0.09l0.009,0.027c0.088,0.261 0.175,0.523 0.261,0.785l0.013,0.039l0.037,0.111l0.136,0.413l0.072,0.221l0.035,0.108l0.034,0.105l0.069,0.211l0.139,0.43l0.035,0.108l0.011,0.035c0.084,0.262 0.168,0.525 0.251,0.788l0.011,0.032l0.032,0.104l0.141,0.444l0.063,0.204l0.033,0.105l0.035,0.113l0.071,0.227l0.124,0.399l0.037,0.119l0.014,0.046c0.081,0.263 0.161,0.526 0.241,0.789l0.008,0.025l0.027,0.092l0.146,0.481l0.056,0.188l0.03,0.101l0.036,0.119l0.072,0.244l0.11,0.372l0.038,0.127l0.016,0.055c0.078,0.264 0.155,0.528 0.232,0.793l0.005,0.017l0.021,0.074l0.151,0.523l0.05,0.173l0.027,0.096l0.036,0.125l0.074,0.261l0.098,0.348l0.038,0.133l0.018,0.064c0.074,0.265 0.148,0.53 0.222,0.795l0.174,0.631l0.043,0.158l0.024,0.09l0.036,0.132l0.076,0.279l0.087,0.325l0.037,0.136l0.019,0.073c0.071,0.266 0.142,0.533 0.213,0.799l0.169,0.648l0.037,0.143l0.022,0.084l0.035,0.136l0.078,0.299l0.077,0.303l0.035,0.138l0.021,0.082c0.135,0.531 0.269,1.063 0.4,1.596l0.019,0.077l0.034,0.14l0.078,0.319l0.069,0.284l0.034,0.137l0.022,0.091l0.037,0.154l0.14,0.589l0.014,0.056c0.063,0.267 0.126,0.535 0.189,0.803l0.016,0.071l0.033,0.143l0.079,0.34l0.061,0.265l0.031,0.136l0.023,0.1l0.038,0.168l0.121,0.533l0.019,0.084l0.004,0.019c0.06,0.268 0.12,0.536 0.179,0.804l0.014,0.063l0.031,0.144l0.08,0.364l0.053,0.248l0.029,0.132l0.023,0.109l0.04,0.183l0.103,0.488l0.024,0.11l0.006,0.028c0.057,0.269 0.113,0.537 0.169,0.806l0.011,0.056l0.029,0.142l0.081,0.39l0.047,0.231l0.026,0.129l0.023,0.117l0.041,0.198l0.089,0.45l0.026,0.128l0.008,0.038c0.053,0.27 0.106,0.539 0.158,0.809l0.01,0.047l0.026,0.139l0.081,0.418l0.041,0.215l0.024,0.124l0.023,0.125l0.041,0.214l0.078,0.418l0.026,0.14l0.009,0.048c0.05,0.27 0.099,0.54 0.148,0.811l0.008,0.039l0.023,0.131l0.081,0.451l0.035,0.198l0.022,0.12l0.023,0.131l0.041,0.232l0.067,0.39l0.026,0.147l0.01,0.058c0.047,0.271 0.093,0.542 0.139,0.814l0.005,0.03l0.02,0.118l0.081,0.489l0.03,0.183l0.019,0.113l0.023,0.139l0.04,0.249l0.059,0.364l0.025,0.153l0.01,0.067c0.044,0.272 0.087,0.544 0.129,0.817l0.004,0.021l0.015,0.098l0.082,0.535l0.025,0.167l0.017,0.107l0.021,0.145l0.041,0.267l0.05,0.341l0.023,0.155l0.012,0.077c0.04,0.273 0.079,0.546 0.118,0.82l0.002,0.012l0.01,0.067l0.083,0.591l0.021,0.153l0.014,0.1l0.021,0.15l0.039,0.286l0.044,0.32l0.021,0.155l0.011,0.086c0.037,0.275 0.073,0.549 0.109,0.824l0.088,0.686l0.018,0.139l0.012,0.092l0.019,0.154l0.038,0.307l0.037,0.3l0.019,0.154l0.011,0.095l0.018,0.143l0.076,0.64l0.005,0.044c0.033,0.276 0.065,0.551 0.096,0.827l0.009,0.084l0.018,0.158l0.037,0.328l0.031,0.282l0.017,0.151l0.011,0.104l0.017,0.158l0.061,0.575l0.009,0.082l0.002,0.017c0.028,0.275 0.057,0.552 0.085,0.828l0.008,0.076l0.015,0.159l0.035,0.352l0.026,0.263l0.014,0.148l0.011,0.112l0.017,0.174l0.049,0.525l0.01,0.112l0.003,0.026c0.025,0.276 0.05,0.553 0.075,0.83l0.006,0.068l0.013,0.158l0.033,0.377l0.021,0.247l0.012,0.143l0.01,0.12l0.016,0.19l0.039,0.484l0.011,0.132l0.003,0.036c0.022,0.277 0.043,0.555 0.064,0.832l0.005,0.059l0.011,0.156l0.03,0.405l0.017,0.23l0.01,0.137l0.009,0.128l0.014,0.207l0.031,0.449l0.01,0.146l0.003,0.045c0.019,0.279 0.037,0.557 0.054,0.835l0.003,0.05l0.009,0.15l0.027,0.436l0.013,0.214l0.008,0.131l0.008,0.136l0.013,0.224l0.023,0.418l0.009,0.155l0.002,0.055c0.016,0.279 0.03,0.559 0.044,0.838l0.002,0.04l0.007,0.14l0.023,0.472l0.009,0.198l0.006,0.125l0.007,0.142l0.011,0.242l0.017,0.391l0.007,0.16l0.002,0.065c0.012,0.28 0.023,0.56 0.034,0.841l0.001,0.03l0.004,0.124l0.019,0.513l0.006,0.183l0.004,0.118l0.005,0.148l0.008,0.261l0.012,0.367l0.005,0.162l0.002,0.075c0.008,0.281 0.015,0.562 0.023,0.844l0,0.021l0.002,0.099l0.014,0.563l0.003,0.168l0.003,0.11l0.003,0.154l0.005,0.28l0.006,0.344l0.004,0.163l0.001,0.084c0.004,0.282 0.009,0.565 0.012,0.848l0.008,0.699l0.001,0.153l0.001,0.102l0.001,0.158l0.003,0.3l0.001,0.324l0.001,0.162l0,0.092l0.001,0.137l0.001,0.716c0,122.274 -99.271,221.546 -221.546,221.546c-122.275,0 -221.546,-99.272 -221.546,-221.546c0,-40.341 10.805,-78.178 29.678,-110.773c38.329,66.199 109.934,110.772 191.868,110.773l0,-221.546Z" style="fill:url(#_Linear2);"/><circle cx="1197.62" cy="161.243" r="44.476" style="fill:#ffef88;"/><defs><linearGradient id="_Linear1" x1="0" y1="0" x2="1" y2="0" gradientUnits="userSpaceOnUse" gradientTransform="matrix(443.092,0,0,443.092,13.9277,243.558)"><stop offset="0" style="stop-color:#ffef88;stop-opacity:1"/><stop offset="1" style="stop-color:#81643a;stop-opacity:1"/></linearGradient><linearGradient id="_Linear2" x1="0" y1="0" x2="1" y2="0" gradientUnits="userSpaceOnUse" gradientTransform="matrix(443.092,0,0,443.092,13.9277,465.104)"><stop offset="0" style="stop-color:#81643a;stop-opacity:1"/><stop offset="1" style="stop-color:#ffef88;stop-opacity:1"/></linearGradient></defs></svg>