<?xml version="1.0" encoding="UTF-8" standalone="no"?>
<!DOCTYPE svg PUBLIC "-//W3C//DTD SVG 1.1//EN" "http://www.w3.org/Graphics/SVG/1.1/DTD/svg11.dtd">
<svg width="100%" height="100%" viewBox="0 0 1539 523" version="1.1" xmlns="http://www.w3.org/2000/svg" xmlns:xlink="http://www.w3.org/1999/xlink" xml:space="preserve" xmlns:serif="http://www.serif.com/" style="fill-rule:evenodd;clip-rule:evenodd;stroke-linejoin:round;stroke-miterlimit:2;">
    <g transform="matrix(1,0,0,1,-639.929,-624.553)">
        <g id="One">
            <g transform="matrix(1.29132,0,0,0.861111,229.99,215.11)">
                <g transform="matrix(329.12,0,0,493.548,685.475,918.5)">
                    <path d="M0.079,-0.157C0.11,-0.126 0.148,-0.111 0.192,-0.111C0.239,-0.111 0.262,-0.125 0.262,-0.152C0.262,-0.166 0.249,-0.177 0.224,-0.184C0.205,-0.188 0.176,-0.195 0.137,-0.206C0.104,-0.214 0.077,-0.23 0.055,-0.252C0.033,-0.275 0.022,-0.309 0.022,-0.356C0.022,-0.392 0.031,-0.422 0.049,-0.447C0.068,-0.472 0.091,-0.49 0.12,-0.501C0.15,-0.514 0.182,-0.52 0.217,-0.52C0.237,-0.52 0.257,-0.517 0.278,-0.511C0.3,-0.504 0.32,-0.496 0.337,-0.486C0.357,-0.475 0.374,-0.463 0.388,-0.45L0.302,-0.364C0.277,-0.383 0.25,-0.393 0.22,-0.393C0.185,-0.393 0.167,-0.383 0.167,-0.363C0.167,-0.345 0.18,-0.332 0.207,-0.325C0.236,-0.317 0.265,-0.31 0.294,-0.303C0.326,-0.295 0.353,-0.28 0.375,-0.258C0.396,-0.236 0.407,-0.201 0.407,-0.154C0.407,-0.118 0.398,-0.088 0.379,-0.062C0.36,-0.036 0.335,-0.017 0.303,-0.004C0.272,0.009 0.239,0.016 0.205,0.016C0.177,0.016 0.151,0.014 0.128,0.009C0.106,0.005 0.084,-0.002 0.064,-0.012C0.044,-0.022 0.022,-0.036 0,-0.053L0.079,-0.157Z" style="fill-rule:nonzero;"/>
                </g>
                <g transform="matrix(329.12,0,0,493.548,827.536,918.5)">
                    <path d="M0,-0L0,-0.692L0.156,-0.693L0.156,-0.31L0.158,-0.31L0.32,-0.5L0.503,-0.5L0.322,-0.285L0.535,-0L0.34,-0L0.156,-0.245L0.156,-0L0,-0Z" style="fill-rule:nonzero;"/>
                </g>
                <g transform="matrix(329.12,0,0,493.548,1011.54,918.5)">
                    <path d="M0.162,-0.5L0.162,0.001L0.006,0.001L0.006,-0.499L0.162,-0.5ZM0.092,-0.63C0.092,-0.615 0.076,-0.62 0.069,-0.608C0.061,-0.596 0.093,-0.641 0.081,-0.634C0.068,-0.626 0.095,-0.633 0.08,-0.633C0.065,-0.633 0.092,-0.626 0.08,-0.633C0.067,-0.64 0.096,-0.622 0.089,-0.634C0.081,-0.647 0.08,-0.618 0.08,-0.633C0.08,-0.648 0.059,-0.628 0.066,-0.641C0.074,-0.653 0.08,-0.623 0.092,-0.63C0.104,-0.638 0.067,-0.633 0.082,-0.633C0.097,-0.633 0.082,-0.643 0.094,-0.636C0.106,-0.629 0.07,-0.662 0.077,-0.649C0.084,-0.637 0.092,-0.645 0.092,-0.63Z" style="fill-rule:nonzero;"/>
                </g>
                <g transform="matrix(329.12,0,0,493.548,1072.93,918.5)">
                    <path d="M0.442,-0.307L0.442,0L0.286,0L0.286,-0.307C0.283,-0.353 0.263,-0.377 0.227,-0.378L0.218,-0.378C0.178,-0.377 0.158,-0.349 0.158,-0.295L0.158,0L0.002,0L0.002,-0.295C0.002,-0.437 0.074,-0.512 0.218,-0.52L0.227,-0.52C0.284,-0.516 0.33,-0.503 0.364,-0.479C0.398,-0.503 0.444,-0.516 0.501,-0.52L0.51,-0.52C0.654,-0.512 0.726,-0.437 0.726,-0.295L0.726,0L0.57,0L0.57,-0.295C0.57,-0.349 0.55,-0.377 0.51,-0.378L0.501,-0.378C0.465,-0.377 0.445,-0.353 0.442,-0.307Z" style="fill-rule:nonzero;"/>
                </g>
                <g transform="matrix(329.12,0,0,493.548,1320.09,918.5)">
                    <path d="M0.156,-0.251C0.156,-0.286 0.169,-0.316 0.195,-0.341C0.221,-0.366 0.251,-0.379 0.286,-0.379C0.322,-0.379 0.352,-0.366 0.378,-0.341C0.404,-0.316 0.417,-0.286 0.417,-0.251C0.417,-0.229 0.411,-0.208 0.399,-0.189C0.387,-0.17 0.371,-0.154 0.351,-0.143C0.33,-0.132 0.309,-0.126 0.286,-0.126C0.263,-0.126 0.242,-0.132 0.222,-0.143C0.202,-0.154 0.186,-0.17 0.174,-0.189C0.162,-0.208 0.156,-0.228 0.156,-0.251ZM0,0.192L0.156,0.192L0.156,-0.014L0.178,-0.004C0.213,0.009 0.249,0.015 0.286,0.015C0.324,0.015 0.36,0.009 0.395,-0.004C0.429,-0.017 0.46,-0.035 0.487,-0.06C0.514,-0.084 0.535,-0.113 0.55,-0.146C0.565,-0.178 0.573,-0.214 0.573,-0.251C0.573,-0.29 0.565,-0.326 0.55,-0.358C0.535,-0.39 0.514,-0.419 0.487,-0.444C0.459,-0.469 0.428,-0.488 0.395,-0.5C0.36,-0.513 0.324,-0.52 0.286,-0.52C0.236,-0.52 0.189,-0.508 0.145,-0.485C0.101,-0.462 0.066,-0.43 0.04,-0.389C0.014,-0.349 0,-0.305 0,-0.255L0,0.192Z" style="fill-rule:nonzero;"/>
                </g>
            </g>
            <g transform="matrix(1.00162,0,0,1.00162,442.635,-20.3172)">
                <circle cx="370.877" cy="817.73" r="173.901" style="fill:url(#_Linear1);"/>
            </g>
            <g transform="matrix(1,0,0,1,562.265,0)">
                <path d="M251.847,798.735C316.264,798.735 372.561,833.78 402.696,885.827L402.697,885.827L402.713,885.856C402.93,886.23 403.145,886.605 403.359,886.981L403.387,887.031L403.426,887.1L403.544,887.307L403.691,887.568L403.729,887.635L403.749,887.67C403.961,888.046 404.171,888.424 404.381,888.803L404.406,888.849L404.445,888.919L404.568,889.142L404.702,889.387L404.741,889.457L404.763,889.497C404.97,889.877 405.176,890.257 405.381,890.638L405.404,890.68L405.442,890.751L405.57,890.99L405.693,891.221L405.732,891.293L405.755,891.338C405.958,891.72 406.16,892.102 406.36,892.486L406.38,892.524L406.417,892.595L406.551,892.852L406.663,893.069L406.701,893.141L406.727,893.192C406.925,893.576 407.122,893.961 407.318,894.347L407.335,894.381L407.37,894.451L407.51,894.727L407.612,894.93L407.648,895.002L407.676,895.058L407.746,895.198L407.951,895.609L407.961,895.63C408.059,895.827 408.157,896.025 408.254,896.222L408.268,896.25L408.301,896.318L408.447,896.615L408.539,896.805L408.574,896.876L408.603,896.937L408.677,897.089L408.859,897.466L408.878,897.504L408.883,897.515C408.978,897.713 409.073,897.911 409.168,898.109L409.179,898.133L409.209,898.196L409.361,898.516L409.445,898.693L409.478,898.763L409.509,898.829L409.586,898.993L409.749,899.341L409.774,899.395L409.782,899.412C409.875,899.611 409.968,899.81 410.06,900.009L410.068,900.028L410.094,900.084L410.253,900.429L410.329,900.595L410.36,900.662L410.392,900.733L410.472,900.909L410.619,901.232L410.649,901.298L410.659,901.322C410.75,901.522 410.84,901.722 410.929,901.922L410.935,901.935L410.956,901.981L411.122,902.355L411.19,902.508L411.219,902.573L411.252,902.649L411.336,902.838L411.468,903.139L411.501,903.213L411.514,903.244C411.602,903.445 411.69,903.646 411.777,903.847L411.969,904.293L412.03,904.435L412.056,904.497L412.09,904.576L412.177,904.779L412.296,905.06L412.33,905.141L412.346,905.178C412.432,905.38 412.517,905.582 412.601,905.784L412.793,906.243L412.847,906.374L412.871,906.432L412.905,906.516L412.995,906.733L413.103,906.995L413.138,907.08L413.156,907.124C413.319,907.523 413.48,907.923 413.641,908.324L413.663,908.379L413.697,908.466L413.79,908.698L413.887,908.943L413.922,909.031L413.942,909.082C414.1,909.483 414.257,909.885 414.412,910.287L414.432,910.338L414.466,910.427L414.562,910.675L414.649,910.905L414.683,910.993L414.705,911.051C414.858,911.454 415.01,911.857 415.161,912.262L415.178,912.308L415.211,912.399L415.31,912.664L415.388,912.878L415.421,912.967L415.445,913.031L415.493,913.162L415.652,913.601L415.664,913.633C415.738,913.838 415.812,914.043 415.886,914.248L415.901,914.289L415.933,914.381L416.034,914.664L416.105,914.864L416.136,914.952L416.161,915.023L416.211,915.165L416.351,915.564L416.369,915.616L416.374,915.63C416.445,915.835 416.517,916.04 416.587,916.245L416.6,916.282L416.631,916.372L416.735,916.675L416.798,916.861L416.828,916.948L416.854,917.025L416.906,917.179L417.029,917.545L417.053,917.616L417.06,917.637C417.129,917.842 417.197,918.048 417.265,918.254L417.276,918.285L417.304,918.372L417.411,918.697L417.468,918.87L417.496,918.955L417.522,919.038L417.577,919.204L417.686,919.542L417.713,919.627L417.722,919.655C417.788,919.861 417.854,920.067 417.919,920.274L417.928,920.299L417.953,920.381L418.064,920.73L418.114,920.891L418.14,920.973L418.167,921.062L418.223,921.24L418.32,921.554L418.349,921.648L418.36,921.684C418.423,921.89 418.487,922.097 418.55,922.304L418.556,922.324L418.577,922.397L418.692,922.774L418.736,922.922L418.76,923.001L418.788,923.095L418.845,923.287L418.931,923.579L418.961,923.68L418.974,923.723C419.035,923.93 419.095,924.138 419.156,924.346L419.16,924.359L419.176,924.417L419.295,924.829L419.334,924.965L419.356,925.04L419.384,925.139L419.442,925.344L419.519,925.617L419.549,925.722L419.563,925.772C419.622,925.98 419.68,926.189 419.737,926.397L419.874,926.894L419.908,927.018L419.927,927.089L419.955,927.192L420.015,927.411L420.084,927.667L420.112,927.774L420.128,927.831C420.184,928.041 420.239,928.25 420.295,928.46L420.428,928.969L420.457,929.081L420.475,929.147L420.502,929.255L420.563,929.489L420.624,929.728L420.652,929.836L420.668,929.901C420.774,930.318 420.879,930.736 420.982,931.155L420.997,931.216L421.024,931.326L421.086,931.577L421.14,931.8L421.166,931.908L421.183,931.98L421.212,932.1L421.323,932.563L421.333,932.607C421.383,932.818 421.433,933.028 421.482,933.239L421.495,933.294L421.521,933.407L421.583,933.674L421.631,933.883L421.655,933.989L421.673,934.068L421.703,934.2L421.798,934.619L421.813,934.685L421.816,934.7C421.864,934.911 421.91,935.122 421.957,935.333L421.968,935.382L421.992,935.495L422.055,935.781L422.097,935.976L422.12,936.08L422.138,936.166L422.169,936.31L422.251,936.693L422.269,936.78L422.274,936.802C422.318,937.013 422.363,937.224 422.407,937.436L422.416,937.48L422.439,937.592L422.502,937.898L422.539,938.079L422.559,938.181L422.578,938.273L422.609,938.429L422.68,938.783L422.7,938.883L422.706,938.913C422.748,939.125 422.79,939.337 422.831,939.549L422.838,939.586L422.859,939.695L422.923,940.024L422.955,940.193L422.973,940.29L422.992,940.388L423.024,940.557L423.085,940.886L423.106,940.996L423.113,941.033C423.152,941.246 423.191,941.458 423.23,941.671L423.235,941.702L423.254,941.804L423.317,942.159L423.345,942.315L423.362,942.409L423.38,942.513L423.412,942.694L423.465,943.001L423.486,943.117L423.493,943.163C423.53,943.376 423.566,943.589 423.602,943.802L423.607,943.826L423.622,943.919L423.686,944.303L423.71,944.447L423.725,944.536L423.742,944.645L423.774,944.841L423.82,945.127L423.84,945.247L423.848,945.3C423.882,945.514 423.916,945.728 423.95,945.942L423.952,945.959L423.964,946.036L424.029,946.456L424.049,946.588L424.062,946.672L424.079,946.786L424.11,946.996L424.15,947.264L424.168,947.386L424.177,947.446C424.209,947.661 424.24,947.876 424.27,948.091L424.272,948.101L424.279,948.154L424.345,948.618L424.362,948.738L424.373,948.817L424.389,948.935L424.42,949.16L424.454,949.411L424.471,949.533L424.479,949.601C424.508,949.817 424.537,950.033 424.565,950.249L424.635,950.788L424.648,950.897L424.657,950.969L424.673,951.091L424.703,951.332L424.732,951.568L424.747,951.689L424.756,951.764L424.769,951.876L424.829,952.379L424.833,952.414C424.859,952.631 424.884,952.847 424.908,953.064L424.916,953.13L424.93,953.254L424.959,953.512L424.983,953.734L424.996,953.852L425.005,953.934L425.019,954.058L425.067,954.511L425.074,954.575L425.075,954.588C425.098,954.805 425.12,955.022 425.142,955.239L425.148,955.299L425.16,955.424L425.188,955.701L425.208,955.908L425.219,956.024L425.228,956.112L425.241,956.249L425.279,956.661L425.288,956.75L425.29,956.77C425.31,956.988 425.329,957.205 425.348,957.423L425.353,957.476L425.364,957.601L425.39,957.897L425.406,958.091L425.416,958.203L425.423,958.298L425.436,958.447L425.467,958.827L425.475,958.931L425.477,958.96C425.495,959.178 425.512,959.396 425.528,959.614L425.532,959.66L425.541,959.783L425.564,960.101L425.577,960.282L425.585,960.39L425.592,960.491L425.604,960.653L425.628,961.006L425.636,961.121L425.638,961.157C425.653,961.376 425.667,961.594 425.681,961.813L425.683,961.852L425.69,961.97L425.712,962.313L425.721,962.481L425.728,962.584L425.734,962.691L425.744,962.867L425.762,963.196L425.769,963.318L425.771,963.361C425.783,963.581 425.795,963.8 425.806,964.02L425.808,964.051L425.813,964.161L425.831,964.532L425.838,964.688L425.843,964.786L425.848,964.898L425.857,965.088L425.87,965.396L425.875,965.522L425.877,965.573C425.886,965.793 425.895,966.013 425.904,966.234L425.905,966.258L425.908,966.355L425.923,966.758L425.927,966.902L425.931,966.995L425.934,967.111L425.941,967.316L425.95,967.605L425.954,967.733L425.955,967.791C425.962,968.012 425.968,968.233 425.974,968.455L425.974,968.471L425.976,968.549L425.986,968.992L425.989,969.124L425.991,969.21L425.993,969.331L425.998,969.551L426.003,969.822L426.005,969.95L426.006,970.016C426.01,970.238 426.013,970.46 426.016,970.683L426.022,971.232L426.023,971.353L426.024,971.433L426.024,971.557L426.026,971.793L426.027,972.048L426.028,972.175L426.028,972.248L426.029,972.355L426.03,972.918C426.03,1069.05 347.981,1147.1 251.847,1147.1C155.713,1147.1 77.665,1069.05 77.665,972.918C77.665,941.201 86.16,911.453 100.998,885.827C131.133,937.874 187.429,972.918 251.847,972.918L251.847,798.735Z" style="fill:url(#_Linear2);"/>
            </g>
            <g transform="matrix(1,0,0,1,-23.7572,-7.14119)">
                <circle cx="1595.56" cy="736.019" r="34.967" style="fill:rgb(117,153,130);"/>
            </g>
        </g>
    </g>
    <defs>
        <linearGradient id="_Linear1" x1="0" y1="0" x2="1" y2="0" gradientUnits="userSpaceOnUse" gradientTransform="matrix(347.802,0,0,347.802,196.975,817.73)"><stop offset="0" style="stop-color:rgb(130,167,140);stop-opacity:1"/><stop offset="1" style="stop-color:rgb(53,79,82);stop-opacity:1"/></linearGradient>
        <linearGradient id="_Linear2" x1="0" y1="0" x2="1" y2="0" gradientUnits="userSpaceOnUse" gradientTransform="matrix(348.365,0,0,348.365,77.6646,972.918)"><stop offset="0" style="stop-color:rgb(53,79,82);stop-opacity:1"/><stop offset="1" style="stop-color:rgb(130,167,140);stop-opacity:1"/></linearGradient>
    </defs>
</svg>
